<mxfile host="app.diagrams.net" modified="2022-03-25T02:21:51.322Z" agent="5.0 (Macintosh; Intel Mac OS X 10_15_7) AppleWebKit/537.36 (KHTML, like Gecko) Chrome/97.0.4692.99 Safari/537.36" etag="IUFcdySbIlLkkQCO5-Vz" version="17.2.1" type="github">
  <diagram id="WS6UTU0eJCu9lpZlMhlz" name="第 1 页">
    <mxGraphModel dx="1264" dy="744" grid="1" gridSize="10" guides="1" tooltips="1" connect="1" arrows="1" fold="1" page="1" pageScale="1" pageWidth="1169" pageHeight="827" math="0" shadow="0">
      <root>
        <mxCell id="0" />
        <mxCell id="1" parent="0" />
        <mxCell id="K2pkjiC00SXVTW9RePKP-1" value="普道征信自控网路" style="rounded=0;whiteSpace=wrap;html=1;verticalAlign=top;fontStyle=1" vertex="1" parent="1">
          <mxGeometry x="140" y="135" width="620" height="580" as="geometry" />
        </mxCell>
        <mxCell id="K2pkjiC00SXVTW9RePKP-2" value="其它组织网络" style="whiteSpace=wrap;html=1;fontStyle=1;verticalAlign=top;" vertex="1" parent="1">
          <mxGeometry x="830" y="170" width="220" height="180" as="geometry" />
        </mxCell>
        <mxCell id="K2pkjiC00SXVTW9RePKP-3" value="区块链节点" style="fontColor=#0066CC;verticalAlign=top;verticalLabelPosition=bottom;labelPosition=center;align=center;html=1;outlineConnect=0;fillColor=#CCCCCC;strokeColor=#6881B3;gradientColor=none;gradientDirection=north;strokeWidth=2;shape=mxgraph.networks.server_storage;" vertex="1" parent="1">
          <mxGeometry x="950" y="230" width="82" height="60" as="geometry" />
        </mxCell>
        <mxCell id="K2pkjiC00SXVTW9RePKP-4" style="edgeStyle=orthogonalEdgeStyle;rounded=0;orthogonalLoop=1;jettySize=auto;html=1;startArrow=classic;startFill=1;" edge="1" parent="1" source="K2pkjiC00SXVTW9RePKP-8" target="K2pkjiC00SXVTW9RePKP-3">
          <mxGeometry relative="1" as="geometry" />
        </mxCell>
        <mxCell id="K2pkjiC00SXVTW9RePKP-5" value="区块链节点&lt;br&gt;MongoDB&lt;br&gt;Redis&lt;br&gt;CASP" style="fontColor=#0066CC;verticalAlign=top;verticalLabelPosition=bottom;labelPosition=center;align=center;html=1;outlineConnect=0;fillColor=#CCCCCC;strokeColor=#6881B3;gradientColor=none;gradientDirection=north;strokeWidth=2;shape=mxgraph.networks.server_storage;" vertex="1" parent="1">
          <mxGeometry x="520" y="230" width="82" height="60" as="geometry" />
        </mxCell>
        <mxCell id="K2pkjiC00SXVTW9RePKP-6" style="edgeStyle=orthogonalEdgeStyle;rounded=0;orthogonalLoop=1;jettySize=auto;html=1;startArrow=classic;startFill=1;" edge="1" parent="1" source="K2pkjiC00SXVTW9RePKP-7" target="K2pkjiC00SXVTW9RePKP-5">
          <mxGeometry relative="1" as="geometry" />
        </mxCell>
        <mxCell id="K2pkjiC00SXVTW9RePKP-7" value="" style="fontColor=#0066CC;verticalAlign=top;verticalLabelPosition=bottom;labelPosition=center;align=center;html=1;outlineConnect=0;fillColor=#CCCCCC;strokeColor=#6881B3;gradientColor=none;gradientDirection=north;strokeWidth=2;shape=mxgraph.networks.firewall;" vertex="1" parent="1">
          <mxGeometry x="650" y="220" width="50" height="80" as="geometry" />
        </mxCell>
        <mxCell id="K2pkjiC00SXVTW9RePKP-8" value="" style="fontColor=#0066CC;verticalAlign=top;verticalLabelPosition=bottom;labelPosition=center;align=center;html=1;outlineConnect=0;fillColor=#CCCCCC;strokeColor=#6881B3;gradientColor=none;gradientDirection=north;strokeWidth=2;shape=mxgraph.networks.firewall;" vertex="1" parent="1">
          <mxGeometry x="850" y="220" width="50" height="80" as="geometry" />
        </mxCell>
        <mxCell id="K2pkjiC00SXVTW9RePKP-9" value="" style="edgeStyle=orthogonalEdgeStyle;rounded=0;orthogonalLoop=1;jettySize=auto;html=1;startArrow=classic;startFill=1;endArrow=classic;endFill=1;" edge="1" parent="1" source="K2pkjiC00SXVTW9RePKP-7" target="K2pkjiC00SXVTW9RePKP-8">
          <mxGeometry relative="1" as="geometry">
            <mxPoint x="700" y="260" as="sourcePoint" />
            <mxPoint x="950" y="260" as="targetPoint" />
          </mxGeometry>
        </mxCell>
        <mxCell id="K2pkjiC00SXVTW9RePKP-10" style="edgeStyle=orthogonalEdgeStyle;rounded=0;orthogonalLoop=1;jettySize=auto;html=1;startArrow=none;startFill=0;endArrow=classic;endFill=1;" edge="1" parent="1" source="K2pkjiC00SXVTW9RePKP-11" target="K2pkjiC00SXVTW9RePKP-5">
          <mxGeometry relative="1" as="geometry" />
        </mxCell>
        <mxCell id="K2pkjiC00SXVTW9RePKP-11" value="长安链应用支撑平台" style="fontColor=#0066CC;verticalAlign=top;verticalLabelPosition=bottom;labelPosition=center;align=center;html=1;outlineConnect=0;fillColor=#CCCCCC;strokeColor=#6881B3;gradientColor=none;gradientDirection=north;strokeWidth=2;shape=mxgraph.networks.server;" vertex="1" parent="1">
          <mxGeometry x="370" y="230" width="82" height="60" as="geometry" />
        </mxCell>
      </root>
    </mxGraphModel>
  </diagram>
</mxfile>
